
1.53k → 1k 65.54%
<svg xmlns="http://www.w3.org/2000/svg" width="128px" height="128px" viewBox="0 0 10240 10240">
  <circle cx="5120" cy="5120" r="3880" fill="#a6f3de"/>
  <g fill="#23a482">
    <path d="M2923 7280a947 947 0 0 1-653-350c0-5 24 0 52 12 252 101 298 113 458 112 121 0 142-2 202-26 109-41 177-87 273-183 95-95 151-181 207-317 33-82 92-277 106-356 10-58 17-46-96-191a1847 1847 0 0 1-389-1097c-11-330 41-574 178-845 260-512 726-917 1594-1384 477-257 593-325 749-444 37-29 70-51 71-49 17 19 137 280 188 408 159 400 227 764 227 1212 0 277-13 417-55 583-79 315-245 651-442 895-83 102-258 270-374 357-186 139-239 168-738 395-368 166-543 264-648 361-48 44-83 121-136 297-49 164-50 170-32 170 8 0 100-36 204-79 334-140 597-217 891-262 115-18 189-22 355-23 344 0 586 43 1050 185 180 56 415 113 575 140 195 33 478 34 638 1 138-28 256-69 386-134 54-27 100-47 103-45 9 10-175 192-256 253-260 196-606 284-999 256-193-14-329-40-682-130-427-109-652-140-940-128-355 15-645 75-1120 231-277 91-443 138-570 160-107 19-287 26-377 15Zm1077-1320c41-26 206-122 365-215 342-198 465-275 600-375 130-96 352-320 437-440 358-506 455-1130 287-1838-50-214-132-462-152-462-16 0-624 323-787 418-608 356-1012 745-1220 1177a1533 1533 0 0 0-69 1190c42 125 147 341 164 338 6-1 40-102 77-224 117-389 137-438 301-724 220-386 389-609 663-875 163-158 394-353 394-332a5253 5253 0 0 0-343 473 6006 6006 0 0 0-384 669c-228 445-346 768-428 1174-16 82-14 113 7 100l88-54Z"/>
    <path d="M6830 6293c-83-5-312-31-520-59-600-80-904-72-1394 37-49 11-91 18-93 15-6-6 145-95 250-148 116-58 282-123 400-157 373-106 616-123 1012-70 132 17 221 23 400 23 254 1 331-9 476-65 294-113 460-379 394-631a477 477 0 0 0-201-294 477 477 0 0 0-474-46 697 697 0 0 0-228 222c-18 30-32 51-33 45-8-70 40-208 104-297a624 624 0 0 1 353-242c81-21 247-21 328 0 246 63 466 290 538 554 30 115 30 288-1 405-131 489-613 749-1311 708Z"/>
  </g>
</svg>